<svg xmlns="http://www.w3.org/2000/svg" width="512" height="512" viewBox="0 0 512 512">
  <defs>
    <linearGradient id="bg" x1="0" y1="0" x2="1" y2="1">
      <stop offset="0" stop-color="#2aa4c4"/>
      <stop offset="0.55" stop-color="#1e88d6"/>
      <stop offset="1" stop-color="#f97316"/>
    </linearGradient>
  </defs>
  <rect x="32" y="32" width="448" height="448" rx="104" fill="url(#bg)"/>
  <!-- pin -->
  <path d="M330 150c34 0 62 28 62 62 0 44-62 96-62 96s-62-52-62-96c0-34 28-62 62-62z" fill="#ffffff" opacity="0.95"/>
  <circle cx="330" cy="212" r="24" fill="#f97316"/>
  <!-- city skyline -->
  <g fill="#ffffff" opacity="0.92">
    <rect x="150" y="206" width="34" height="92" rx="4"/>
    <rect x="196" y="178" width="40" height="120" rx="4"/>
    <rect x="248" y="220" width="34" height="78" rx="4"/>
  </g>
  <!-- car -->
  <g fill="#ffffff">
    <path d="M148 322c0-14 16-26 44-30 18-16 34-22 64-22 26 0 40 8 58 24 22 2 34 12 34 28 0 8-6 14-14 14H162c-8 0-14-6-14-14z"/>
    <circle cx="200" cy="344" r="14" fill="#1e88d6"/>
    <circle cx="312" cy="344" r="14" fill="#1e88d6"/>
  </g>
</svg>
